<svg xmlns="http://www.w3.org/2000/svg" viewBox="0 0 24 24"><path d="M11,4V3a1,1,0,0,1,2,0V4a1,1,0,0,1-2,0ZM5.636,7.05A1,1,0,0,0,7.05,5.636l-.707-.707A1,1,0,0,0,4.929,6.343ZM19,12a1,1,0,0,0,1,1h1a1,1,0,0,0,0-2H20A1,1,0,0,0,19,12Zm-.636-4.95.707-.707a1,1,0,1,0-1.414-1.414l-.707.707A1,1,0,0,0,18.364,7.05ZM22,18a4,4,0,0,1-4,4H8.729A6.729,6.729,0,0,1,2,15.271,6.254,6.254,0,0,1,6.741,9.143,5.989,5.989,0,0,1,18,12a5.864,5.864,0,0,1-.109,1.09A4.993,4.993,0,0,1,22,18Zm-6-6A3.982,3.982,0,0,0,9.222,9.147a5.971,5.971,0,0,1,4.542,4.3,5.823,5.823,0,0,1,2.1-.449A3.824,3.824,0,0,0,16,12Z"/></svg>